#N canvas 157 146 835 687 12;
#X obj 305 62 loadbang;
#X floatatom 463 428 15 0 0 0 - - - 0;
#X obj 464 479 send 1-samplelength;
#X obj 459 332 loadbang;
#X obj 262 155 s 1-on_off_rcv;
#X msg 259 115 1;
#X obj 399 168 s 1-offset_random_rcv;
#X msg 378 118 0.5;
#X obj 284 257 s 1-sample_offset_rcv;
#X obj 16 233 ys_granular_main 1;
#X msg 305 216 0.1;
#X msg 465 381 12000;
#X obj 284 332 s 1-grain_pitch_rcv;
#X obj 287 360 s 1-grain_size_rcv;
#X obj 290 390 s 1-random_pitch_rcv;
#X obj 290 415 s 1-random_panning_rcv;
#X obj 450 137 s 1-global_pan_rcv;
#X obj 305 522 s 1-autoplay_speed_rcv;
#X obj 112 329 s 1-volume_rcv;
#X obj 112 358 s 1-reverse_rcv;
#X obj 118 392 s 1-reverse_random_rcv;
#X obj 443 257 s 1-grain_density_rcv;
#X obj 108 184 s 1-grainplay_chance_rcv;
#X msg 371 214 0;
#X msg 427 205 0.25;
#X connect 0 0 5 0;
#X connect 0 0 7 0;
#X connect 0 0 10 0;
#X connect 0 0 23 0;
#X connect 0 0 24 0;
#X connect 1 0 2 0;
#X connect 3 0 11 0;
#X connect 5 0 4 0;
#X connect 5 0 22 0;
#X connect 5 0 18 0;
#X connect 7 0 6 0;
#X connect 7 0 16 0;
#X connect 10 0 8 0;
#X connect 10 0 21 0;
#X connect 10 0 13 0;
#X connect 10 0 14 0;
#X connect 10 0 15 0;
#X connect 11 0 1 0;
#X connect 23 0 19 0;
#X connect 23 0 20 0;
#X connect 24 0 12 0;
