#N canvas 157 146 835 687 12;
#X obj 119 280 ys.granular_main 1;
#X text 38 546 yann seznec // 2023 // yannseznec.com;
#X obj 636 108 loadbang;
#X floatatom 463 428 15 0 0 0 - - - 0;
#X obj 464 479 send 1-samplelength;
#X obj 459 332 loadbang;
#X msg 465 381 947232;
#X obj 593 201 s 1-on_off_rcv;
#X msg 590 161 1;
#X obj 715 200 s 1-offset_random_rcv;
#X msg 709 164 0.5;
#X msg 636 262 0.3;
#X obj 636 291 s 1-sample_offset_rcv;
#X connect 2 0 8 0;
#X connect 2 0 10 0;
#X connect 2 0 11 0;
#X connect 3 0 4 0;
#X connect 5 0 6 0;
#X connect 6 0 3 0;
#X connect 8 0 7 0;
#X connect 10 0 9 0;
#X connect 11 0 12 0;
