#N canvas 136 25 1265 831 10;
#X obj 266 586 *~;
#X obj 263 612 abs~;
#X obj 257 541 *~;
#X obj 689 240 hsl 128 15 -1 1 0 0 empty empty empty -2 -8 0 10 #fcfcfc #000000 #000000 0 1;
#X obj 658 86 random 1000;
#X obj 660 113 / 1000;
#X obj 659 134 - 0.5;
#X floatatom 676 197 5 0 0 0 - - - 0;
#X obj 659 218 *;
#X obj 647 289 +;
#X obj 662 260 t b f;
#X obj 655 441 *;
#X obj 923 278 hsl 128 15 -1 1 0 0 empty empty empty -2 -8 0 10 #fcfcfc #000000 #000000 0 1;
#X obj 853 88 random 1000;
#X obj 855 115 / 1000;
#X obj 854 136 - 0.5;
#X floatatom 901 199 5 0 0 0 - - - 0;
#X obj 891 258 *;
#X obj 897 447 +;
#X obj 894 300 t b f;
#X obj 367 247 sel 0 1;
#X obj 647 308 abs;
#X obj 255 820 *~;
#X obj 641 337 clip 0 1;
#X obj 694 422 -;
#X obj 764 378 t b f;
#X obj 1026 238 * 4;
#X obj 1050 200 t b f;
#X obj 898 484 s \$0-grain_pitch;
#X obj 403 476 r \$0-grain_pitch;
#X text 899 34 pitch controls;
#X text 671 33 location controls;
#X obj 563 541 i;
#X msg 314 439 1 \$1;
#X obj 75 198 s \$0-grainbang;
#X obj 237 265 r \$0-grainbang;
#X obj 524 497 r \$0-grainbang;
#X obj 664 58 r \$0-grainbang;
#X obj 855 55 r \$0-grainbang;
#X obj 302 405 f;
#X obj 274 350 t b b;
#X obj 318 371 / 44.1;
#X obj 184 472 line~;
#X obj 769 351 f;
#X obj 735 286 r \$0-grainbang;
#X obj 303 565 f;
#X obj 304 527 r \$0-grainbang;
#X obj 312 496 f;
#X obj 311 475 r \$0-grainbang;
#X obj 56 604 *~ 441;
#X msg 276 439 0;
#X obj 182 406 f;
#X obj 154 351 t b b;
#X obj 198 372 / 44.1;
#X msg 188 440 0 \$1;
#X msg 156 440 1;
#X msg 362 268 1;
#X msg 394 268 0;
#X obj 272 325 spigot;
#X obj 182 325 spigot;
#X msg 430 269 0;
#X msg 464 269 1;
#X obj 482 181 random 2;
#X floatatom 482 202 5 0 0 0 - - - 0;
#X obj 484 146 bng 15 250 50 0 empty empty empty 17 7 0 10 #fcfcfc #000000 #000000;
#X obj 468 113 spigot;
#X obj 356 71 r \$0-grainbang;
#X obj 369 213 i;
#X obj 426 159 sel 0;
#X obj 65 16 inlet;
#X obj 66 43 t b;
#X obj 689 471 %;
#X floatatom 652 379 5 0 0 0 - - - 0;
#X obj 1020 335 bng 15 250 50 0 empty empty empty 17 7 0 10 #fcfcfc #000000 #000000;
#X msg 1021 358 1;
#X obj 464 74 r \$2-reverse_random;
#X obj 333 158 r \$2-reverse;
#X obj 198 337 r \$2-grainsize;
#X obj 318 350 r \$2-grainsize;
#X obj 437 337 r samplerate;
#X obj 437 358 / 1000;
#X obj 401 528 r \$2-grainsize;
#X obj 645 15 r \$2-sample_offset;
#X obj 676 173 r \$2-offset_random;
#X obj 789 324 r \$2-grainsize;
#X obj 1038 286 r \$2-reset_pitch;
#X obj 1061 177 r \$2-pitch_range;
#X obj 1012 141 r \$2-grain_pitch;
#X obj 903 178 r \$2-random_pitch;
#X obj 263 784 tabread4~ \$2-poly_grain-L;
#X obj 317 819 r \$2-volume;
#X obj 311 1047 throw~ \$2-grainoutL;
#X obj 652 358 r \$2-samplelength;
#X obj 56 630 tabread~ \$2-crown;
#X obj 899 226 t b f;
#X obj 627 602 hsl 128 15 0 1 0 0 empty empty empty -2 -8 0 10 #fcfcfc #000000 #000000 0 1;
#X obj 363 856 *~;
#X obj 521 838 *~;
#X obj 624 625 * 220.5;
#X floatatom 756 576 5 0 0 0 - - - 0;
#X obj 763 634 *;
#X obj 756 554 - 100;
#X obj 754 526 random 200;
#X obj 349 899 *~ 0.8;
#X obj 540 910 *~ 0.8;
#X obj 754 493 r \$0-grainbang;
#X obj 777 603 r \$2-random_panning;
#X obj 624 565 r \$2-global_pan;
#X obj 617 838 r \$2-volume;
#X obj 525 1037 throw~ \$2-grainoutR;
#X obj 653 673 +;
#X obj 478 784 tabread \$2-hann;
#X obj 721 776 tabread \$2-hann;
#X obj 161 32 r \$2-currentgrain;
#X obj 161 61 sel \$1;
#X obj 172 114 t b;
#X obj 125 159 bng 25 250 50 0 empty empty empty 17 7 0 10 #e4e4e4 #4d4d4d #373737;
#X obj 511 749 -;
#X obj 533 679 t b f;
#X msg 512 709 220.5;
#X obj 333 625 tgl 25 0 empty empty empty 17 7 0 10 #e4e4e4 #4d4d4d #373737 0 1;
#X obj 333 673 metro 20;
#X obj 311 713 snapshot~;
#X floatatom 311 742 14 0 0 0 - - - 16;
#X obj 349 928 *~ 0.2;
#X obj 541 989 *~ 0.2;
#X connect 0 0 1 0;
#X connect 1 0 89 0;
#X connect 2 0 0 0;
#X connect 4 0 5 0;
#X connect 5 0 6 0;
#X connect 6 0 8 0;
#X connect 7 0 8 1;
#X connect 8 0 3 0;
#X connect 8 0 10 0;
#X connect 9 0 21 0;
#X connect 10 0 9 0;
#X connect 10 1 9 1;
#X connect 11 0 71 0;
#X connect 13 0 14 0;
#X connect 14 0 15 0;
#X connect 15 0 17 0;
#X connect 16 0 94 0;
#X connect 17 0 12 0;
#X connect 17 0 19 0;
#X connect 18 0 28 0;
#X connect 19 0 18 0;
#X connect 19 1 18 1;
#X connect 20 0 56 0;
#X connect 20 0 60 0;
#X connect 20 1 57 0;
#X connect 20 1 61 0;
#X connect 21 0 23 0;
#X connect 22 0 96 0;
#X connect 22 0 97 0;
#X connect 23 0 11 0;
#X connect 24 0 11 1;
#X connect 25 0 24 0;
#X connect 25 1 24 1;
#X connect 26 0 18 0;
#X connect 27 0 26 0;
#X connect 27 1 26 1;
#X connect 29 0 47 1;
#X connect 32 0 89 1;
#X connect 33 0 42 0;
#X connect 35 0 58 0;
#X connect 35 0 59 0;
#X connect 36 0 32 0;
#X connect 37 0 4 0;
#X connect 38 0 13 0;
#X connect 39 0 33 0;
#X connect 40 0 39 0;
#X connect 40 1 50 0;
#X connect 41 0 39 1;
#X connect 42 0 2 0;
#X connect 42 0 49 0;
#X connect 43 0 25 0;
#X connect 44 0 43 0;
#X connect 45 0 0 1;
#X connect 46 0 45 0;
#X connect 47 0 2 1;
#X connect 48 0 47 0;
#X connect 49 0 93 0;
#X connect 50 0 42 0;
#X connect 51 0 54 0;
#X connect 52 0 51 0;
#X connect 52 1 55 0;
#X connect 53 0 51 1;
#X connect 54 0 42 0;
#X connect 55 0 42 0;
#X connect 56 0 58 1;
#X connect 57 0 58 1;
#X connect 58 0 40 0;
#X connect 59 0 52 0;
#X connect 60 0 59 1;
#X connect 61 0 59 1;
#X connect 62 0 63 0;
#X connect 63 0 20 0;
#X connect 64 0 62 0;
#X connect 65 0 64 0;
#X connect 66 0 65 0;
#X connect 67 0 20 0;
#X connect 68 0 67 0;
#X connect 69 0 70 0;
#X connect 70 0 34 0;
#X connect 71 0 32 1;
#X connect 73 0 74 0;
#X connect 74 0 18 0;
#X connect 75 0 65 1;
#X connect 75 0 68 0;
#X connect 76 0 67 0;
#X connect 77 0 53 0;
#X connect 78 0 41 0;
#X connect 79 0 80 0;
#X connect 80 0 41 1;
#X connect 80 0 53 1;
#X connect 81 0 45 1;
#X connect 82 0 9 0;
#X connect 83 0 7 0;
#X connect 84 0 43 1;
#X connect 86 0 27 0;
#X connect 87 0 26 0;
#X connect 88 0 16 0;
#X connect 89 0 22 0;
#X connect 92 0 24 0;
#X connect 92 0 72 0;
#X connect 92 0 71 1;
#X connect 93 0 22 1;
#X connect 94 0 17 0;
#X connect 94 1 17 1;
#X connect 95 0 98 0;
#X connect 96 0 103 0;
#X connect 97 0 104 0;
#X connect 98 0 110 1;
#X connect 99 0 100 0;
#X connect 100 0 110 0;
#X connect 101 0 99 0;
#X connect 102 0 101 0;
#X connect 103 0 124 0;
#X connect 104 0 125 0;
#X connect 105 0 102 0;
#X connect 106 0 100 1;
#X connect 107 0 95 0;
#X connect 108 0 103 1;
#X connect 108 0 104 1;
#X connect 110 0 112 0;
#X connect 110 0 118 0;
#X connect 111 0 96 1;
#X connect 112 0 97 1;
#X connect 113 0 114 0;
#X connect 114 0 115 0;
#X connect 115 0 116 0;
#X connect 116 0 34 0;
#X connect 117 0 111 0;
#X connect 118 0 119 0;
#X connect 118 1 117 1;
#X connect 119 0 117 0;
#X connect 120 0 121 0;
#X connect 121 0 122 0;
#X connect 122 0 123 0;
#X connect 124 0 91 0;
#X connect 125 0 109 0;
