#N canvas 827 239 527 327 12;
#X msg 953 623 stop, f 7;
#X msg 963 757 start \$1;
#X obj 1131 408 bng 15 250 50 0 empty empty empty 17 7 0 10 #fcfcfc #000000 #000000;
#X obj 950 238 sel 1 0;
#X obj 664 535 *~;
#X obj 722 354 line~;
#X obj 550 672 dac~;
#X obj 546 531 *~;
#X obj 767 472 line~;
#X msg 768 443 \$1 30;
#X obj 749 543 *~;
#X obj 579 534 *~;
#X floatatom 855 221 5 0 0 0 - - - 0;
#X obj 714 319 pack 0 30;
#X obj 973 463 delay 30;
#N canvas 100 351 688 388 stereomonoMS 0;
#X obj 175 51 adc~;
#X obj 160 344 outlet~;
#X obj 224 345 outlet~;
#X obj 237 235 *~ -1;
#X obj 176 272 *~;
#X obj 205 271 *~;
#X obj 237 271 *~;
#X obj 386 52 sel 0 1 2;
#X msg 340 164 0;
#X msg 368 163 1;
#X msg 404 162 0;
#X msg 432 161 1;
#X obj 407 212 line;
#X obj 343 278 *~;
#X msg 470 160 0;
#X msg 498 159 1;
#X obj 473 210 line;
#X obj 421 276 *~;
#X floatatom 350 241 5 0 0 0 - - - 0;
#X obj 342 214 line 1;
#X msg 342 193 \$1 30;
#X msg 406 191 \$1 30;
#X msg 472 189 \$1 30;
#X msg 540 82 1;
#X msg 503 82 2;
#X obj 515 112 s num_channels;
#X obj 388 24 r \$1-stereoms;
#X floatatom 411 245 5 0 0 0 - - - 0;
#X floatatom 478 244 5 0 0 0 - - - 0;
#X connect 0 0 1 0;
#X connect 0 0 5 0;
#X connect 0 0 13 0;
#X connect 0 1 3 0;
#X connect 0 1 4 0;
#X connect 0 1 17 0;
#X connect 3 0 6 0;
#X connect 4 0 1 0;
#X connect 5 0 2 0;
#X connect 6 0 2 0;
#X connect 7 0 8 0;
#X connect 7 0 10 0;
#X connect 7 0 15 0;
#X connect 7 0 24 0;
#X connect 7 1 9 0;
#X connect 7 1 10 0;
#X connect 7 1 14 0;
#X connect 7 1 24 0;
#X connect 7 2 8 0;
#X connect 7 2 11 0;
#X connect 7 2 14 0;
#X connect 7 2 23 0;
#X connect 7 3 8 0;
#X connect 7 3 10 0;
#X connect 7 3 14 0;
#X connect 8 0 20 0;
#X connect 9 0 20 0;
#X connect 10 0 21 0;
#X connect 11 0 21 0;
#X connect 12 0 13 1;
#X connect 12 0 27 0;
#X connect 13 0 2 0;
#X connect 14 0 22 0;
#X connect 15 0 22 0;
#X connect 16 0 17 1;
#X connect 16 0 28 0;
#X connect 17 0 2 0;
#X connect 19 0 4 1;
#X connect 19 0 5 1;
#X connect 19 0 6 1;
#X connect 19 0 18 0;
#X connect 20 0 19 0;
#X connect 21 0 12 0;
#X connect 22 0 16 0;
#X connect 23 0 25 0;
#X connect 24 0 25 0;
#X connect 26 0 7 0;
#X restore 561 354 pd stereomonoMS;
#X obj 655 909 tabwrite~ \$1-poly_grain-L;
#X obj 931 215 r \$1-record;
#X obj 698 291 r \$1-record;
#X obj 774 419 r \$1-input_monitor;
#X obj 1203 458 s \$1-samplelength;
#X obj 1011 212 loadbang;
#X obj 1140 536 bng 15 250 50 0 empty empty empty 17 7 0 10 #fcfcfc #000000 #000000;
#X obj 1125 450 t b b b;
#X obj 1087 583 t b b b;
#X msg 998 716 0;
#X obj 680 938 r \$1-clear;
#X obj 683 1007 i \$1;
#X msg 700 1043 \; \$1-poly_grain-L const 0;
#X obj 1328 439 pack 0 0;
#X obj 1321 348 timer;
#X floatatom 1321 369 5 0 0 0 - - - 0;
#X obj 1338 324 bng 15 250 50 0 empty empty empty 17 7 0 10 #fcfcfc #000000 #000000;
#X obj 1304 316 bng 15 250 50 0 empty empty empty 17 7 0 10 #fcfcfc #000000 #000000;
#X obj 1310 256 sel 1 0;
#X obj 1411 305 r samplerate;
#X obj 1411 326 / 1000;
#X obj 1328 415 * 44.1;
#X obj 1309 234 tgl 15 0 empty empty empty 17 7 0 10 #fcfcfc #000000 #000000 0 1;
#X obj 1270 288 t b b;
#X msg 1400 520 \; \$2-poly_grain-L resize \$1;
#X msg 1271 368 10000;
#X obj 1311 202 r \$1-record;
#X obj 1321 389 + 30;
#X obj 1463 394 loadbang;
#X obj 1463 415 i \$1;
#X msg 1101 362 \; \$1-poly_grain-L normalize;
#X obj 1024 272 i \$1;
#X obj 834 344 s \$1-visual;
#X obj 1034 251 bng 15 250 50 0 empty empty empty 17 7 0 10 #fcfcfc #000000 #000000;
#X obj 859 292 t b f;
#X obj 653 976 t b b;
#X obj 600 1017 s \$1-visual;
#X obj 1321 863 i \$1;
#X obj 1319 665 r \$1-recordLoop;
#X msg 1330 987 \; \$1-poly_grain-L resize 88200;
#X obj 1314 699 sel 1 0;
#X obj 1310 791 t b b b;
#X obj 1329 722 t b b;
#X msg 1419 802 0;
#X msg 1374 809 1;
#X obj 1419 840 tgl 15 0 empty empty empty 17 7 0 10 #fcfcfc #000000 #000000 0 1;
#X obj 1419 860 metro 2000;
#X obj 1422 882 bng 15 250 50 0 empty empty empty 17 7 0 10 #fcfcfc #000000 #000000;
#X obj 667 256 r \$1-recordLoop;
#X text 1389 493 for some reason this was resetting the size on startup \, to verify;
#X connect 0 0 16 0;
#X connect 1 0 16 0;
#X connect 2 0 23 0;
#X connect 3 0 2 0;
#X connect 3 1 14 0;
#X connect 3 1 47 0;
#X connect 4 0 16 0;
#X connect 5 0 4 1;
#X connect 5 0 10 1;
#X connect 7 0 6 0;
#X connect 8 0 7 1;
#X connect 8 0 11 1;
#X connect 9 0 8 0;
#X connect 11 0 6 1;
#X connect 12 0 13 1;
#X connect 12 0 14 1;
#X connect 13 0 5 0;
#X connect 14 0 0 0;
#X connect 15 0 4 0;
#X connect 15 0 7 0;
#X connect 15 1 10 0;
#X connect 15 1 11 0;
#X connect 17 0 3 0;
#X connect 18 0 13 0;
#X connect 19 0 9 0;
#X connect 22 0 24 0;
#X connect 23 2 22 0;
#X connect 24 2 25 0;
#X connect 25 0 1 0;
#X connect 26 0 51 0;
#X connect 27 0 28 0;
#X connect 30 0 31 0;
#X connect 31 0 43 0;
#X connect 32 0 30 1;
#X connect 33 0 30 0;
#X connect 34 0 39 0;
#X connect 34 1 32 0;
#X connect 35 0 36 0;
#X connect 36 0 37 1;
#X connect 37 0 29 0;
#X connect 37 0 20 0;
#X connect 38 0 34 0;
#X connect 39 0 33 0;
#X connect 39 1 41 0;
#X connect 41 0 37 0;
#X connect 42 0 38 0;
#X connect 43 0 37 0;
#X connect 44 0 45 0;
#X connect 45 0 29 1;
#X connect 47 0 50 0;
#X connect 49 0 47 0;
#X connect 50 0 48 0;
#X connect 50 1 46 0;
#X connect 51 0 52 0;
#X connect 51 1 27 0;
#X connect 54 0 56 0;
#X connect 56 0 57 0;
#X connect 56 1 58 0;
#X connect 57 1 53 0;
#X connect 57 2 60 0;
#X connect 58 0 14 0;
#X connect 58 1 59 0;
#X connect 59 0 61 0;
#X connect 60 0 61 0;
#X connect 61 0 62 0;
#X connect 62 0 63 0;
#X connect 63 0 25 0;
#X connect 64 0 13 0;
