#N canvas 94 254 648 582 12;
#X obj 133 297 soundfiler;
#X floatatom 138 330 15 0 0 0 - - - 0;
#X obj 225 227 openpanel;
#X obj 240 187 bng 15 250 50 0 empty empty choose_file 17 7 0 10 #fcfcfc #000000 #000000;
#X msg 138 263 read -resize \$1 1-poly_grain-L;
#X obj 139 381 send 1-samplelength;
#X obj 225 297 bng 25 250 50 0 empty empty empty 17 7 0 10 #e4e4e4 #4d4d4d #373737;
#X connect 0 0 1 0;
#X connect 1 0 5 0;
#X connect 2 0 4 0;
#X connect 3 0 2 0;
#X connect 4 0 0 0;
#X connect 6 0 1 0;
